<svg width="32" height="32" viewBox="0 0 32 32" fill="none" xmlns="http://www.w3.org/2000/svg">
<path d="M29.0435 32L22.1304 25.087C19.7246 26.913 16.9855 27.8261 13.913 27.8261C11.3913 27.8261 9.05797 27.2029 6.91304 25.9565C4.7971 24.7101 3.11594 23.029 1.86957 20.913C0.623188 18.7681 0 16.4348 0 13.913C0 11.3913 0.623188 9.07246 1.86957 6.95652C3.11594 4.81159 4.7971 3.11594 6.91304 1.86957C9.05797 0.623189 11.3913 0 13.913 0C16.4058 0 18.7101 0.623189 20.8261 1.86957C22.971 3.11594 24.6667 4.81159 25.913 6.95652C27.1884 9.07246 27.8261 11.3913 27.8261 13.913C27.8261 16.9855 26.913 19.7246 25.087 22.1304L32 29.0435L29.0435 32ZM4.17391 13.913C4.17391 15.6812 4.6087 17.3188 5.47826 18.8261C6.34783 20.3043 7.52174 21.4783 9 22.3478C10.5072 23.2174 12.1449 23.6522 13.913 23.6522C15.6812 23.6522 17.3043 23.2174 18.7826 22.3478C20.2609 21.4783 21.4348 20.3043 22.3043 18.8261C23.2029 17.3188 23.6522 15.6812 23.6522 13.913C23.6522 12.1449 23.2029 10.5217 22.3043 9.04348C21.4348 7.53623 20.2609 6.34783 18.7826 5.47826C17.3043 4.6087 15.6812 4.17391 13.913 4.17391C12.1449 4.17391 10.5072 4.6087 9 5.47826C7.52174 6.34783 6.34783 7.53623 5.47826 9.04348C4.6087 10.5217 4.17391 12.1449 4.17391 13.913Z" fill="#8C8C8C"/>
</svg>
